# xmcd
#
# Track frame offsets:
#	150
#	15937
#	25348
#	42396
#	57304
#
# Disc length: 955 seconds
#
# Revision: 0
# Processed by: cddbd v1.5PL3 Copyright (c) Steve Scherf et al.
# Submitted via: audiograbber 1.81.02
#
DISCID=3503b905
DTITLE=Sunday Revolution - The Girls
DYEAR=2003
DGENRE=Country
TTITLE0=Folsom Prison Blues
TTITLE1=Perfect (The Jill Song)
TTITLE2=You Are My Sunshine
TTITLE3=I Am Weary
TTITLE4=A Boy Named Zue
EXTD=
EXTT0=
EXTT1=
EXTT2=
EXTT3=
EXTT4=
PLAYORDER=
